<mxfile host="app.diagrams.net" modified="2022-10-31T04:39:58.819Z" agent="5.0 (Macintosh; Intel Mac OS X 10_15_7) AppleWebKit/537.36 (KHTML, like Gecko) Chrome/107.0.0.0 Safari/537.36" etag="PjaRwGLgZLTE-MU8fvDo" version="20.5.1" type="github" pages="2">
  <diagram id="8pYdvf0Vjy8PGNL5Wu--" name="Use Case">
    <mxGraphModel dx="1310" dy="857" grid="1" gridSize="10" guides="1" tooltips="1" connect="1" arrows="1" fold="1" page="1" pageScale="1" pageWidth="850" pageHeight="1100" math="0" shadow="0">
      <root>
        <mxCell id="0" />
        <mxCell id="1" parent="0" />
        <mxCell id="rVxo1T5X09Oe69zh3RZC-1" style="edgeStyle=none;rounded=0;orthogonalLoop=1;jettySize=auto;html=1;" parent="1" source="rVxo1T5X09Oe69zh3RZC-3" target="rVxo1T5X09Oe69zh3RZC-4" edge="1">
          <mxGeometry relative="1" as="geometry" />
        </mxCell>
        <mxCell id="rVxo1T5X09Oe69zh3RZC-2" style="edgeStyle=none;rounded=0;orthogonalLoop=1;jettySize=auto;html=1;entryX=1;entryY=0.5;entryDx=0;entryDy=0;" parent="1" source="rVxo1T5X09Oe69zh3RZC-3" target="rVxo1T5X09Oe69zh3RZC-31" edge="1">
          <mxGeometry relative="1" as="geometry" />
        </mxCell>
        <mxCell id="rVxo1T5X09Oe69zh3RZC-3" value="Admin" style="shape=umlActor;verticalLabelPosition=bottom;verticalAlign=top;html=1;outlineConnect=0;" parent="1" vertex="1">
          <mxGeometry x="910" y="250" width="30" height="60" as="geometry" />
        </mxCell>
        <mxCell id="rVxo1T5X09Oe69zh3RZC-4" value="Login" style="ellipse;whiteSpace=wrap;html=1;" parent="1" vertex="1">
          <mxGeometry x="290" y="190" width="70" height="40" as="geometry" />
        </mxCell>
        <mxCell id="bWr1Kji9oJV5c9_9Rl1m-45" style="edgeStyle=none;rounded=0;orthogonalLoop=1;jettySize=auto;html=1;" edge="1" parent="1" source="rVxo1T5X09Oe69zh3RZC-8" target="bWr1Kji9oJV5c9_9Rl1m-43">
          <mxGeometry relative="1" as="geometry" />
        </mxCell>
        <mxCell id="bWr1Kji9oJV5c9_9Rl1m-46" style="edgeStyle=none;rounded=0;orthogonalLoop=1;jettySize=auto;html=1;entryX=0;entryY=0.5;entryDx=0;entryDy=0;" edge="1" parent="1" source="rVxo1T5X09Oe69zh3RZC-8" target="rVxo1T5X09Oe69zh3RZC-4">
          <mxGeometry relative="1" as="geometry" />
        </mxCell>
        <mxCell id="rVxo1T5X09Oe69zh3RZC-8" value="Toko Bangunan" style="shape=umlActor;verticalLabelPosition=bottom;verticalAlign=top;html=1;outlineConnect=0;" parent="1" vertex="1">
          <mxGeometry x="50" y="600" width="30" height="60" as="geometry" />
        </mxCell>
        <mxCell id="bWr1Kji9oJV5c9_9Rl1m-61" style="edgeStyle=none;rounded=0;orthogonalLoop=1;jettySize=auto;html=1;entryX=0.984;entryY=0.358;entryDx=0;entryDy=0;entryPerimeter=0;" edge="1" parent="1" source="rVxo1T5X09Oe69zh3RZC-12" target="bWr1Kji9oJV5c9_9Rl1m-57">
          <mxGeometry relative="1" as="geometry" />
        </mxCell>
        <mxCell id="bWr1Kji9oJV5c9_9Rl1m-60" style="edgeStyle=none;rounded=0;orthogonalLoop=1;jettySize=auto;html=1;entryX=1;entryY=0;entryDx=0;entryDy=0;" edge="1" parent="1" source="rVxo1T5X09Oe69zh3RZC-12" target="bWr1Kji9oJV5c9_9Rl1m-56">
          <mxGeometry relative="1" as="geometry" />
        </mxCell>
        <mxCell id="bWr1Kji9oJV5c9_9Rl1m-78" style="edgeStyle=none;rounded=0;orthogonalLoop=1;jettySize=auto;html=1;entryX=1;entryY=1;entryDx=0;entryDy=0;" edge="1" parent="1" source="rVxo1T5X09Oe69zh3RZC-12" target="rVxo1T5X09Oe69zh3RZC-4">
          <mxGeometry relative="1" as="geometry" />
        </mxCell>
        <mxCell id="rVxo1T5X09Oe69zh3RZC-12" value="&lt;span style=&quot;background-color: rgb(255, 255, 255);&quot;&gt;Arsitek dan Tukang&lt;/span&gt;" style="shape=umlActor;verticalLabelPosition=bottom;verticalAlign=top;html=1;outlineConnect=0;" parent="1" vertex="1">
          <mxGeometry x="920" y="500" width="30" height="60" as="geometry" />
        </mxCell>
        <mxCell id="bWr1Kji9oJV5c9_9Rl1m-5" style="edgeStyle=none;rounded=0;orthogonalLoop=1;jettySize=auto;html=1;entryX=0;entryY=0.5;entryDx=0;entryDy=0;" edge="1" parent="1" source="rVxo1T5X09Oe69zh3RZC-21" target="rVxo1T5X09Oe69zh3RZC-25">
          <mxGeometry relative="1" as="geometry" />
        </mxCell>
        <mxCell id="bWr1Kji9oJV5c9_9Rl1m-6" style="edgeStyle=none;rounded=0;orthogonalLoop=1;jettySize=auto;html=1;entryX=0;entryY=0.5;entryDx=0;entryDy=0;" edge="1" parent="1" source="rVxo1T5X09Oe69zh3RZC-21" target="rVxo1T5X09Oe69zh3RZC-4">
          <mxGeometry relative="1" as="geometry" />
        </mxCell>
        <mxCell id="bWr1Kji9oJV5c9_9Rl1m-7" style="edgeStyle=none;rounded=0;orthogonalLoop=1;jettySize=auto;html=1;entryX=0;entryY=0.5;entryDx=0;entryDy=0;" edge="1" parent="1" source="rVxo1T5X09Oe69zh3RZC-21" target="rVxo1T5X09Oe69zh3RZC-26">
          <mxGeometry relative="1" as="geometry" />
        </mxCell>
        <mxCell id="rVxo1T5X09Oe69zh3RZC-21" value="Customer" style="shape=umlActor;verticalLabelPosition=bottom;verticalAlign=top;html=1;outlineConnect=0;" parent="1" vertex="1">
          <mxGeometry x="50" y="320" width="30" height="60" as="geometry" />
        </mxCell>
        <mxCell id="rVxo1T5X09Oe69zh3RZC-22" style="rounded=0;orthogonalLoop=1;jettySize=auto;html=1;dashed=1;" parent="1" source="rVxo1T5X09Oe69zh3RZC-24" target="rVxo1T5X09Oe69zh3RZC-4" edge="1">
          <mxGeometry relative="1" as="geometry" />
        </mxCell>
        <mxCell id="rVxo1T5X09Oe69zh3RZC-23" value="&amp;lt;&amp;lt;exclude&amp;gt;&amp;gt;" style="edgeLabel;html=1;align=center;verticalAlign=middle;resizable=0;points=[];" parent="rVxo1T5X09Oe69zh3RZC-22" vertex="1" connectable="0">
          <mxGeometry x="0.1489" y="-1" relative="1" as="geometry">
            <mxPoint x="11" y="1" as="offset" />
          </mxGeometry>
        </mxCell>
        <mxCell id="rVxo1T5X09Oe69zh3RZC-24" value="Register" style="ellipse;whiteSpace=wrap;html=1;" parent="1" vertex="1">
          <mxGeometry x="255" y="100" width="80" height="30" as="geometry" />
        </mxCell>
        <mxCell id="rVxo1T5X09Oe69zh3RZC-25" value="Profile" style="ellipse;whiteSpace=wrap;html=1;" parent="1" vertex="1">
          <mxGeometry x="280" y="260" width="70" height="40" as="geometry" />
        </mxCell>
        <mxCell id="bWr1Kji9oJV5c9_9Rl1m-47" value="" style="edgeStyle=none;rounded=0;orthogonalLoop=1;jettySize=auto;html=1;" edge="1" parent="1" source="rVxo1T5X09Oe69zh3RZC-26" target="rVxo1T5X09Oe69zh3RZC-25">
          <mxGeometry relative="1" as="geometry" />
        </mxCell>
        <mxCell id="rVxo1T5X09Oe69zh3RZC-26" value="Home" style="ellipse;whiteSpace=wrap;html=1;" parent="1" vertex="1">
          <mxGeometry x="250" y="365" width="70" height="40" as="geometry" />
        </mxCell>
        <mxCell id="rVxo1T5X09Oe69zh3RZC-27" value="Search Product" style="ellipse;whiteSpace=wrap;html=1;" parent="1" vertex="1">
          <mxGeometry x="460" y="405" width="80" height="50" as="geometry" />
        </mxCell>
        <mxCell id="rVxo1T5X09Oe69zh3RZC-28" value="Chat" style="ellipse;whiteSpace=wrap;html=1;" parent="1" vertex="1">
          <mxGeometry x="400" y="840" width="90" height="60" as="geometry" />
        </mxCell>
        <mxCell id="rVxo1T5X09Oe69zh3RZC-29" value="Consultation" style="ellipse;whiteSpace=wrap;html=1;" parent="1" vertex="1">
          <mxGeometry x="345" y="580" width="80" height="50" as="geometry" />
        </mxCell>
        <mxCell id="rVxo1T5X09Oe69zh3RZC-30" value="Checkout" style="ellipse;whiteSpace=wrap;html=1;" parent="1" vertex="1">
          <mxGeometry x="550" y="690" width="90" height="60" as="geometry" />
        </mxCell>
        <mxCell id="rVxo1T5X09Oe69zh3RZC-31" value="Manage Data" style="ellipse;whiteSpace=wrap;html=1;" parent="1" vertex="1">
          <mxGeometry x="710" y="300" width="70" height="50" as="geometry" />
        </mxCell>
        <mxCell id="rVxo1T5X09Oe69zh3RZC-36" value="Forgot Password" style="ellipse;whiteSpace=wrap;html=1;" parent="1" vertex="1">
          <mxGeometry x="500" y="150" width="80" height="30" as="geometry" />
        </mxCell>
        <mxCell id="rVxo1T5X09Oe69zh3RZC-37" style="rounded=0;orthogonalLoop=1;jettySize=auto;html=1;dashed=1;exitX=0;exitY=1;exitDx=0;exitDy=0;" parent="1" source="rVxo1T5X09Oe69zh3RZC-36" edge="1">
          <mxGeometry relative="1" as="geometry">
            <mxPoint x="427.90153976914803" y="167.50307618324496" as="sourcePoint" />
            <mxPoint x="360" y="206" as="targetPoint" />
          </mxGeometry>
        </mxCell>
        <mxCell id="rVxo1T5X09Oe69zh3RZC-38" value="&amp;lt;&amp;lt;include&amp;gt;&amp;gt;" style="edgeLabel;html=1;align=center;verticalAlign=middle;resizable=0;points=[];" parent="rVxo1T5X09Oe69zh3RZC-37" vertex="1" connectable="0">
          <mxGeometry x="0.1489" y="-1" relative="1" as="geometry">
            <mxPoint x="11" y="1" as="offset" />
          </mxGeometry>
        </mxCell>
        <mxCell id="rVxo1T5X09Oe69zh3RZC-40" value="Login With Google" style="ellipse;whiteSpace=wrap;html=1;" parent="1" vertex="1">
          <mxGeometry x="390" y="95" width="95" height="40" as="geometry" />
        </mxCell>
        <mxCell id="rVxo1T5X09Oe69zh3RZC-41" style="rounded=0;orthogonalLoop=1;jettySize=auto;html=1;dashed=1;exitX=0.5;exitY=1;exitDx=0;exitDy=0;entryX=1;entryY=0;entryDx=0;entryDy=0;" parent="1" source="rVxo1T5X09Oe69zh3RZC-40" target="rVxo1T5X09Oe69zh3RZC-4" edge="1">
          <mxGeometry relative="1" as="geometry">
            <mxPoint x="310.8456493504002" y="159.83895604332372" as="sourcePoint" />
            <mxPoint x="327.2011319474045" y="200.50282986851101" as="targetPoint" />
          </mxGeometry>
        </mxCell>
        <mxCell id="rVxo1T5X09Oe69zh3RZC-42" value="&amp;lt;&amp;lt;include&amp;gt;&amp;gt;" style="edgeLabel;html=1;align=center;verticalAlign=middle;resizable=0;points=[];" parent="rVxo1T5X09Oe69zh3RZC-41" vertex="1" connectable="0">
          <mxGeometry x="0.1489" y="-1" relative="1" as="geometry">
            <mxPoint x="11" y="1" as="offset" />
          </mxGeometry>
        </mxCell>
        <mxCell id="0_wBG8y4vcGGB3tlVAzw-5" value="View Product" style="ellipse;whiteSpace=wrap;html=1;" vertex="1" parent="1">
          <mxGeometry x="410" y="460" width="70" height="40" as="geometry" />
        </mxCell>
        <mxCell id="0_wBG8y4vcGGB3tlVAzw-6" value="Edit Profile" style="ellipse;whiteSpace=wrap;html=1;" vertex="1" parent="1">
          <mxGeometry x="520" y="250" width="60" height="40" as="geometry" />
        </mxCell>
        <mxCell id="0_wBG8y4vcGGB3tlVAzw-10" style="rounded=0;orthogonalLoop=1;jettySize=auto;html=1;dashed=1;exitX=0;exitY=0.5;exitDx=0;exitDy=0;entryX=1;entryY=0.5;entryDx=0;entryDy=0;" edge="1" parent="1" source="0_wBG8y4vcGGB3tlVAzw-6" target="rVxo1T5X09Oe69zh3RZC-25">
          <mxGeometry relative="1" as="geometry">
            <mxPoint x="447.5" y="145" as="sourcePoint" />
            <mxPoint x="359.49229421857285" y="205.7128283724992" as="targetPoint" />
          </mxGeometry>
        </mxCell>
        <mxCell id="0_wBG8y4vcGGB3tlVAzw-11" value="&amp;lt;&amp;lt;include&amp;gt;&amp;gt;" style="edgeLabel;html=1;align=center;verticalAlign=middle;resizable=0;points=[];" vertex="1" connectable="0" parent="0_wBG8y4vcGGB3tlVAzw-10">
          <mxGeometry x="0.1489" y="-1" relative="1" as="geometry">
            <mxPoint x="11" y="1" as="offset" />
          </mxGeometry>
        </mxCell>
        <mxCell id="0_wBG8y4vcGGB3tlVAzw-13" value="Change Password" style="ellipse;whiteSpace=wrap;html=1;" vertex="1" parent="1">
          <mxGeometry x="405" y="330" width="75" height="60" as="geometry" />
        </mxCell>
        <mxCell id="0_wBG8y4vcGGB3tlVAzw-15" style="rounded=0;orthogonalLoop=1;jettySize=auto;html=1;dashed=1;exitX=0;exitY=0.5;exitDx=0;exitDy=0;entryX=1;entryY=1;entryDx=0;entryDy=0;" edge="1" parent="1" source="0_wBG8y4vcGGB3tlVAzw-13" target="rVxo1T5X09Oe69zh3RZC-25">
          <mxGeometry relative="1" as="geometry">
            <mxPoint x="455" y="290" as="sourcePoint" />
            <mxPoint x="359.99999999999795" y="290" as="targetPoint" />
          </mxGeometry>
        </mxCell>
        <mxCell id="0_wBG8y4vcGGB3tlVAzw-16" value="&amp;lt;&amp;lt;include&amp;gt;&amp;gt;" style="edgeLabel;html=1;align=center;verticalAlign=middle;resizable=0;points=[];" vertex="1" connectable="0" parent="0_wBG8y4vcGGB3tlVAzw-15">
          <mxGeometry x="0.1489" y="-1" relative="1" as="geometry">
            <mxPoint x="11" y="1" as="offset" />
          </mxGeometry>
        </mxCell>
        <mxCell id="0_wBG8y4vcGGB3tlVAzw-17" style="rounded=0;orthogonalLoop=1;jettySize=auto;html=1;dashed=1;exitX=0;exitY=0;exitDx=0;exitDy=0;entryX=1;entryY=1;entryDx=0;entryDy=0;" edge="1" parent="1" source="0_wBG8y4vcGGB3tlVAzw-5" target="rVxo1T5X09Oe69zh3RZC-26">
          <mxGeometry relative="1" as="geometry">
            <mxPoint x="410.00000000000273" y="360" as="sourcePoint" />
            <mxPoint x="349.4922942185699" y="304.2871716274991" as="targetPoint" />
          </mxGeometry>
        </mxCell>
        <mxCell id="0_wBG8y4vcGGB3tlVAzw-18" value="&amp;lt;&amp;lt;include&amp;gt;&amp;gt;" style="edgeLabel;html=1;align=center;verticalAlign=middle;resizable=0;points=[];" vertex="1" connectable="0" parent="0_wBG8y4vcGGB3tlVAzw-17">
          <mxGeometry x="0.1489" y="-1" relative="1" as="geometry">
            <mxPoint x="11" y="1" as="offset" />
          </mxGeometry>
        </mxCell>
        <mxCell id="0_wBG8y4vcGGB3tlVAzw-19" style="rounded=0;orthogonalLoop=1;jettySize=auto;html=1;dashed=1;exitX=0;exitY=0.5;exitDx=0;exitDy=0;entryX=1;entryY=0.5;entryDx=0;entryDy=0;" edge="1" parent="1" source="rVxo1T5X09Oe69zh3RZC-27" target="rVxo1T5X09Oe69zh3RZC-26">
          <mxGeometry relative="1" as="geometry">
            <mxPoint x="310.50770578142715" y="445.7128283724992" as="sourcePoint" />
            <mxPoint x="275" y="390" as="targetPoint" />
          </mxGeometry>
        </mxCell>
        <mxCell id="0_wBG8y4vcGGB3tlVAzw-20" value="&amp;lt;&amp;lt;include&amp;gt;&amp;gt;" style="edgeLabel;html=1;align=center;verticalAlign=middle;resizable=0;points=[];" vertex="1" connectable="0" parent="0_wBG8y4vcGGB3tlVAzw-19">
          <mxGeometry x="0.1489" y="-1" relative="1" as="geometry">
            <mxPoint x="11" y="1" as="offset" />
          </mxGeometry>
        </mxCell>
        <mxCell id="0_wBG8y4vcGGB3tlVAzw-22" value="Looking fo Service" style="ellipse;whiteSpace=wrap;html=1;" vertex="1" parent="1">
          <mxGeometry x="220" y="470" width="90" height="40" as="geometry" />
        </mxCell>
        <mxCell id="0_wBG8y4vcGGB3tlVAzw-23" style="rounded=0;orthogonalLoop=1;jettySize=auto;html=1;dashed=1;exitX=0;exitY=0;exitDx=0;exitDy=0;entryX=0.5;entryY=1;entryDx=0;entryDy=0;" edge="1" parent="1" source="0_wBG8y4vcGGB3tlVAzw-22" target="rVxo1T5X09Oe69zh3RZC-26">
          <mxGeometry relative="1" as="geometry">
            <mxPoint x="310.50770578142715" y="455.7128283724992" as="sourcePoint" />
            <mxPoint x="245" y="410" as="targetPoint" />
          </mxGeometry>
        </mxCell>
        <mxCell id="0_wBG8y4vcGGB3tlVAzw-24" value="&amp;lt;&amp;lt;include&amp;gt;&amp;gt;" style="edgeLabel;html=1;align=center;verticalAlign=middle;resizable=0;points=[];" vertex="1" connectable="0" parent="0_wBG8y4vcGGB3tlVAzw-23">
          <mxGeometry x="0.1489" y="-1" relative="1" as="geometry">
            <mxPoint x="11" y="1" as="offset" />
          </mxGeometry>
        </mxCell>
        <mxCell id="bWr1Kji9oJV5c9_9Rl1m-8" style="rounded=0;orthogonalLoop=1;jettySize=auto;html=1;dashed=1;exitX=0;exitY=0;exitDx=0;exitDy=0;entryX=1;entryY=1;entryDx=0;entryDy=0;" edge="1" parent="1" source="rVxo1T5X09Oe69zh3RZC-29" target="0_wBG8y4vcGGB3tlVAzw-22">
          <mxGeometry relative="1" as="geometry">
            <mxPoint x="420.5077057814301" y="465.7128283725008" as="sourcePoint" />
            <mxPoint x="269.49229421857" y="404.2871716274991" as="targetPoint" />
          </mxGeometry>
        </mxCell>
        <mxCell id="bWr1Kji9oJV5c9_9Rl1m-9" value="&amp;lt;&amp;lt;include&amp;gt;&amp;gt;" style="edgeLabel;html=1;align=center;verticalAlign=middle;resizable=0;points=[];" vertex="1" connectable="0" parent="bWr1Kji9oJV5c9_9Rl1m-8">
          <mxGeometry x="0.1489" y="-1" relative="1" as="geometry">
            <mxPoint x="11" y="1" as="offset" />
          </mxGeometry>
        </mxCell>
        <mxCell id="bWr1Kji9oJV5c9_9Rl1m-10" style="rounded=0;orthogonalLoop=1;jettySize=auto;html=1;dashed=1;exitX=0.5;exitY=1;exitDx=0;exitDy=0;entryX=0.5;entryY=0;entryDx=0;entryDy=0;" edge="1" parent="1" source="0_wBG8y4vcGGB3tlVAzw-5" target="rVxo1T5X09Oe69zh3RZC-28">
          <mxGeometry relative="1" as="geometry">
            <mxPoint x="510.443760063172" y="469.99548179962403" as="sourcePoint" />
            <mxPoint x="529.5652832456906" y="530.4126787523663" as="targetPoint" />
          </mxGeometry>
        </mxCell>
        <mxCell id="bWr1Kji9oJV5c9_9Rl1m-11" value="&amp;lt;&amp;lt;exclude&amp;gt;&amp;gt;" style="edgeLabel;html=1;align=center;verticalAlign=middle;resizable=0;points=[];" vertex="1" connectable="0" parent="bWr1Kji9oJV5c9_9Rl1m-10">
          <mxGeometry x="0.1489" y="-1" relative="1" as="geometry">
            <mxPoint x="11" y="1" as="offset" />
          </mxGeometry>
        </mxCell>
        <mxCell id="bWr1Kji9oJV5c9_9Rl1m-12" style="rounded=0;orthogonalLoop=1;jettySize=auto;html=1;dashed=1;exitX=0.5;exitY=1;exitDx=0;exitDy=0;entryX=0;entryY=0;entryDx=0;entryDy=0;" edge="1" parent="1" source="rVxo1T5X09Oe69zh3RZC-29" target="rVxo1T5X09Oe69zh3RZC-28">
          <mxGeometry relative="1" as="geometry">
            <mxPoint x="470" y="510" as="sourcePoint" />
            <mxPoint x="465" y="720" as="targetPoint" />
          </mxGeometry>
        </mxCell>
        <mxCell id="bWr1Kji9oJV5c9_9Rl1m-13" value="&amp;lt;&amp;lt;exclude&amp;gt;&amp;gt;" style="edgeLabel;html=1;align=center;verticalAlign=middle;resizable=0;points=[];" vertex="1" connectable="0" parent="bWr1Kji9oJV5c9_9Rl1m-12">
          <mxGeometry x="0.1489" y="-1" relative="1" as="geometry">
            <mxPoint x="11" y="1" as="offset" />
          </mxGeometry>
        </mxCell>
        <mxCell id="bWr1Kji9oJV5c9_9Rl1m-20" value="Add To Cart" style="ellipse;whiteSpace=wrap;html=1;" vertex="1" parent="1">
          <mxGeometry x="590" y="500" width="70" height="40" as="geometry" />
        </mxCell>
        <mxCell id="bWr1Kji9oJV5c9_9Rl1m-22" style="rounded=0;orthogonalLoop=1;jettySize=auto;html=1;dashed=1;exitX=0;exitY=0.5;exitDx=0;exitDy=0;entryX=1;entryY=0.5;entryDx=0;entryDy=0;" edge="1" parent="1" source="bWr1Kji9oJV5c9_9Rl1m-20" target="0_wBG8y4vcGGB3tlVAzw-5">
          <mxGeometry relative="1" as="geometry">
            <mxPoint x="706.0177057814301" y="590.0028283725007" as="sourcePoint" />
            <mxPoint x="530.00229421857" y="508.5771716274991" as="targetPoint" />
          </mxGeometry>
        </mxCell>
        <mxCell id="bWr1Kji9oJV5c9_9Rl1m-23" value="&amp;lt;&amp;lt;include&amp;gt;&amp;gt;" style="edgeLabel;html=1;align=center;verticalAlign=middle;resizable=0;points=[];" vertex="1" connectable="0" parent="bWr1Kji9oJV5c9_9Rl1m-22">
          <mxGeometry x="0.1489" y="-1" relative="1" as="geometry">
            <mxPoint x="11" y="1" as="offset" />
          </mxGeometry>
        </mxCell>
        <mxCell id="bWr1Kji9oJV5c9_9Rl1m-24" style="rounded=0;orthogonalLoop=1;jettySize=auto;html=1;dashed=1;exitX=0.5;exitY=0;exitDx=0;exitDy=0;entryX=1;entryY=1;entryDx=0;entryDy=0;" edge="1" parent="1" source="bWr1Kji9oJV5c9_9Rl1m-20" target="rVxo1T5X09Oe69zh3RZC-27">
          <mxGeometry relative="1" as="geometry">
            <mxPoint x="579.9999999999961" y="520" as="sourcePoint" />
            <mxPoint x="505" y="500" as="targetPoint" />
          </mxGeometry>
        </mxCell>
        <mxCell id="bWr1Kji9oJV5c9_9Rl1m-25" value="&amp;lt;&amp;lt;include&amp;gt;&amp;gt;" style="edgeLabel;html=1;align=center;verticalAlign=middle;resizable=0;points=[];" vertex="1" connectable="0" parent="bWr1Kji9oJV5c9_9Rl1m-24">
          <mxGeometry x="0.1489" y="-1" relative="1" as="geometry">
            <mxPoint x="11" y="1" as="offset" />
          </mxGeometry>
        </mxCell>
        <mxCell id="bWr1Kji9oJV5c9_9Rl1m-26" value="Cart" style="ellipse;whiteSpace=wrap;html=1;" vertex="1" parent="1">
          <mxGeometry x="500" y="600" width="70" height="40" as="geometry" />
        </mxCell>
        <mxCell id="bWr1Kji9oJV5c9_9Rl1m-28" style="rounded=0;orthogonalLoop=1;jettySize=auto;html=1;dashed=1;exitX=1;exitY=1;exitDx=0;exitDy=0;entryX=0;entryY=0.5;entryDx=0;entryDy=0;" edge="1" parent="1" source="rVxo1T5X09Oe69zh3RZC-26" target="bWr1Kji9oJV5c9_9Rl1m-26">
          <mxGeometry relative="1" as="geometry">
            <mxPoint x="405.003760063172" y="489.99548179962403" as="sourcePoint" />
            <mxPoint x="424.1252832456906" y="550.4126787523663" as="targetPoint" />
          </mxGeometry>
        </mxCell>
        <mxCell id="bWr1Kji9oJV5c9_9Rl1m-29" value="&amp;lt;&amp;lt;include&amp;gt;&amp;gt;" style="edgeLabel;html=1;align=center;verticalAlign=middle;resizable=0;points=[];" vertex="1" connectable="0" parent="bWr1Kji9oJV5c9_9Rl1m-28">
          <mxGeometry x="0.1489" y="-1" relative="1" as="geometry">
            <mxPoint x="11" y="1" as="offset" />
          </mxGeometry>
        </mxCell>
        <mxCell id="bWr1Kji9oJV5c9_9Rl1m-30" style="rounded=0;orthogonalLoop=1;jettySize=auto;html=1;dashed=1;exitX=0.5;exitY=1;exitDx=0;exitDy=0;entryX=0.5;entryY=0;entryDx=0;entryDy=0;" edge="1" parent="1" source="bWr1Kji9oJV5c9_9Rl1m-20" target="bWr1Kji9oJV5c9_9Rl1m-26">
          <mxGeometry relative="1" as="geometry">
            <mxPoint x="269.49229421857" y="404.2871716274991" as="sourcePoint" />
            <mxPoint x="529.9999999999961" y="620" as="targetPoint" />
          </mxGeometry>
        </mxCell>
        <mxCell id="bWr1Kji9oJV5c9_9Rl1m-31" value="&amp;lt;&amp;lt;exclude&amp;gt;&amp;gt;" style="edgeLabel;html=1;align=center;verticalAlign=middle;resizable=0;points=[];" vertex="1" connectable="0" parent="bWr1Kji9oJV5c9_9Rl1m-30">
          <mxGeometry x="0.1489" y="-1" relative="1" as="geometry">
            <mxPoint x="11" y="1" as="offset" />
          </mxGeometry>
        </mxCell>
        <mxCell id="bWr1Kji9oJV5c9_9Rl1m-32" value="View Chat" style="ellipse;whiteSpace=wrap;html=1;" vertex="1" parent="1">
          <mxGeometry x="200" y="610" width="90" height="60" as="geometry" />
        </mxCell>
        <mxCell id="bWr1Kji9oJV5c9_9Rl1m-35" style="rounded=0;orthogonalLoop=1;jettySize=auto;html=1;dashed=1;exitX=0;exitY=0;exitDx=0;exitDy=0;entryX=0.5;entryY=1;entryDx=0;entryDy=0;" edge="1" parent="1" source="rVxo1T5X09Oe69zh3RZC-30" target="bWr1Kji9oJV5c9_9Rl1m-26">
          <mxGeometry relative="1" as="geometry">
            <mxPoint x="605" y="570" as="sourcePoint" />
            <mxPoint x="555" y="620" as="targetPoint" />
          </mxGeometry>
        </mxCell>
        <mxCell id="bWr1Kji9oJV5c9_9Rl1m-36" value="&amp;lt;&amp;lt;include&amp;gt;&amp;gt;" style="edgeLabel;html=1;align=center;verticalAlign=middle;resizable=0;points=[];" vertex="1" connectable="0" parent="bWr1Kji9oJV5c9_9Rl1m-35">
          <mxGeometry x="0.1489" y="-1" relative="1" as="geometry">
            <mxPoint x="11" y="1" as="offset" />
          </mxGeometry>
        </mxCell>
        <mxCell id="bWr1Kji9oJV5c9_9Rl1m-37" value="Payment" style="ellipse;whiteSpace=wrap;html=1;" vertex="1" parent="1">
          <mxGeometry x="710" y="570" width="90" height="60" as="geometry" />
        </mxCell>
        <mxCell id="bWr1Kji9oJV5c9_9Rl1m-38" style="rounded=0;orthogonalLoop=1;jettySize=auto;html=1;dashed=1;exitX=0.5;exitY=0;exitDx=0;exitDy=0;entryX=0.5;entryY=1;entryDx=0;entryDy=0;" edge="1" parent="1" source="bWr1Kji9oJV5c9_9Rl1m-32" target="0_wBG8y4vcGGB3tlVAzw-22">
          <mxGeometry relative="1" as="geometry">
            <mxPoint x="366.54886427309157" y="597.4272396980859" as="sourcePoint" />
            <mxPoint x="306.7153074572527" y="514.18842702035" as="targetPoint" />
          </mxGeometry>
        </mxCell>
        <mxCell id="bWr1Kji9oJV5c9_9Rl1m-39" value="&amp;lt;&amp;lt;include&amp;gt;&amp;gt;" style="edgeLabel;html=1;align=center;verticalAlign=middle;resizable=0;points=[];" vertex="1" connectable="0" parent="bWr1Kji9oJV5c9_9Rl1m-38">
          <mxGeometry x="0.1489" y="-1" relative="1" as="geometry">
            <mxPoint x="11" y="1" as="offset" />
          </mxGeometry>
        </mxCell>
        <mxCell id="bWr1Kji9oJV5c9_9Rl1m-40" style="rounded=0;orthogonalLoop=1;jettySize=auto;html=1;dashed=1;exitX=0.5;exitY=1;exitDx=0;exitDy=0;entryX=0;entryY=0.5;entryDx=0;entryDy=0;" edge="1" parent="1" source="bWr1Kji9oJV5c9_9Rl1m-32" target="rVxo1T5X09Oe69zh3RZC-28">
          <mxGeometry relative="1" as="geometry">
            <mxPoint x="395" y="640" as="sourcePoint" />
            <mxPoint x="437.9701700301971" y="838.9277434409194" as="targetPoint" />
          </mxGeometry>
        </mxCell>
        <mxCell id="bWr1Kji9oJV5c9_9Rl1m-41" value="&amp;lt;&amp;lt;exclude&amp;gt;&amp;gt;" style="edgeLabel;html=1;align=center;verticalAlign=middle;resizable=0;points=[];" vertex="1" connectable="0" parent="bWr1Kji9oJV5c9_9Rl1m-40">
          <mxGeometry x="0.1489" y="-1" relative="1" as="geometry">
            <mxPoint x="11" y="1" as="offset" />
          </mxGeometry>
        </mxCell>
        <mxCell id="bWr1Kji9oJV5c9_9Rl1m-43" value="Manage Toko" style="ellipse;whiteSpace=wrap;html=1;" vertex="1" parent="1">
          <mxGeometry x="110" y="710" width="70" height="50" as="geometry" />
        </mxCell>
        <mxCell id="bWr1Kji9oJV5c9_9Rl1m-49" style="rounded=0;orthogonalLoop=1;jettySize=auto;html=1;dashed=1;exitX=1;exitY=0;exitDx=0;exitDy=0;entryX=0;entryY=1;entryDx=0;entryDy=0;" edge="1" parent="1" source="bWr1Kji9oJV5c9_9Rl1m-43" target="bWr1Kji9oJV5c9_9Rl1m-32">
          <mxGeometry relative="1" as="geometry">
            <mxPoint x="285" y="620" as="sourcePoint" />
            <mxPoint x="275" y="520" as="targetPoint" />
          </mxGeometry>
        </mxCell>
        <mxCell id="bWr1Kji9oJV5c9_9Rl1m-50" value="&amp;lt;&amp;lt;include&amp;gt;&amp;gt;" style="edgeLabel;html=1;align=center;verticalAlign=middle;resizable=0;points=[];" vertex="1" connectable="0" parent="bWr1Kji9oJV5c9_9Rl1m-49">
          <mxGeometry x="0.1489" y="-1" relative="1" as="geometry">
            <mxPoint x="11" y="1" as="offset" />
          </mxGeometry>
        </mxCell>
        <mxCell id="bWr1Kji9oJV5c9_9Rl1m-51" style="rounded=0;orthogonalLoop=1;jettySize=auto;html=1;dashed=1;exitX=0.5;exitY=1;exitDx=0;exitDy=0;entryX=0;entryY=0;entryDx=0;entryDy=0;" edge="1" parent="1" source="bWr1Kji9oJV5c9_9Rl1m-43" target="bWr1Kji9oJV5c9_9Rl1m-53">
          <mxGeometry relative="1" as="geometry">
            <mxPoint x="209.5786489181778" y="717.2016680247677" as="sourcePoint" />
            <mxPoint x="253" y="830" as="targetPoint" />
          </mxGeometry>
        </mxCell>
        <mxCell id="bWr1Kji9oJV5c9_9Rl1m-52" value="&amp;lt;&amp;lt;include&amp;gt;&amp;gt;" style="edgeLabel;html=1;align=center;verticalAlign=middle;resizable=0;points=[];" vertex="1" connectable="0" parent="bWr1Kji9oJV5c9_9Rl1m-51">
          <mxGeometry x="0.1489" y="-1" relative="1" as="geometry">
            <mxPoint x="-2" y="-6" as="offset" />
          </mxGeometry>
        </mxCell>
        <mxCell id="bWr1Kji9oJV5c9_9Rl1m-53" value="Sales" style="ellipse;whiteSpace=wrap;html=1;" vertex="1" parent="1">
          <mxGeometry x="200" y="800" width="70" height="50" as="geometry" />
        </mxCell>
        <mxCell id="bWr1Kji9oJV5c9_9Rl1m-56" value="Manage Profile" style="ellipse;whiteSpace=wrap;html=1;" vertex="1" parent="1">
          <mxGeometry x="580" y="790" width="90" height="60" as="geometry" />
        </mxCell>
        <mxCell id="bWr1Kji9oJV5c9_9Rl1m-57" value="View Job" style="ellipse;whiteSpace=wrap;html=1;" vertex="1" parent="1">
          <mxGeometry x="600" y="890" width="90" height="60" as="geometry" />
        </mxCell>
        <mxCell id="bWr1Kji9oJV5c9_9Rl1m-58" value="Confirm Order" style="ellipse;whiteSpace=wrap;html=1;" vertex="1" parent="1">
          <mxGeometry x="230" y="910" width="90" height="60" as="geometry" />
        </mxCell>
        <mxCell id="bWr1Kji9oJV5c9_9Rl1m-63" style="rounded=0;orthogonalLoop=1;jettySize=auto;html=1;dashed=1;exitX=0;exitY=0.5;exitDx=0;exitDy=0;entryX=1;entryY=0.5;entryDx=0;entryDy=0;" edge="1" parent="1" source="bWr1Kji9oJV5c9_9Rl1m-57" target="rVxo1T5X09Oe69zh3RZC-28">
          <mxGeometry relative="1" as="geometry">
            <mxPoint x="255" y="680" as="sourcePoint" />
            <mxPoint x="410" y="880" as="targetPoint" />
          </mxGeometry>
        </mxCell>
        <mxCell id="bWr1Kji9oJV5c9_9Rl1m-64" value="&amp;lt;&amp;lt;include&amp;gt;&amp;gt;" style="edgeLabel;html=1;align=center;verticalAlign=middle;resizable=0;points=[];" vertex="1" connectable="0" parent="bWr1Kji9oJV5c9_9Rl1m-63">
          <mxGeometry x="0.1489" y="-1" relative="1" as="geometry">
            <mxPoint x="11" y="1" as="offset" />
          </mxGeometry>
        </mxCell>
        <mxCell id="bWr1Kji9oJV5c9_9Rl1m-66" style="rounded=0;orthogonalLoop=1;jettySize=auto;html=1;dashed=1;exitX=0;exitY=1;exitDx=0;exitDy=0;entryX=1;entryY=0;entryDx=0;entryDy=0;" edge="1" parent="1" source="bWr1Kji9oJV5c9_9Rl1m-37" target="rVxo1T5X09Oe69zh3RZC-30">
          <mxGeometry relative="1" as="geometry">
            <mxPoint x="573.1801948466054" y="718.7867965644034" as="sourcePoint" />
            <mxPoint x="545" y="650" as="targetPoint" />
          </mxGeometry>
        </mxCell>
        <mxCell id="bWr1Kji9oJV5c9_9Rl1m-67" value="&amp;lt;&amp;lt;include&amp;gt;&amp;gt;" style="edgeLabel;html=1;align=center;verticalAlign=middle;resizable=0;points=[];" vertex="1" connectable="0" parent="bWr1Kji9oJV5c9_9Rl1m-66">
          <mxGeometry x="0.1489" y="-1" relative="1" as="geometry">
            <mxPoint x="11" y="1" as="offset" />
          </mxGeometry>
        </mxCell>
        <mxCell id="bWr1Kji9oJV5c9_9Rl1m-69" style="rounded=0;orthogonalLoop=1;jettySize=auto;html=1;dashed=1;exitX=0.5;exitY=0;exitDx=0;exitDy=0;entryX=0.5;entryY=1;entryDx=0;entryDy=0;" edge="1" parent="1" source="bWr1Kji9oJV5c9_9Rl1m-58" target="bWr1Kji9oJV5c9_9Rl1m-53">
          <mxGeometry relative="1" as="geometry">
            <mxPoint x="255" y="620" as="sourcePoint" />
            <mxPoint x="275" y="520" as="targetPoint" />
          </mxGeometry>
        </mxCell>
        <mxCell id="bWr1Kji9oJV5c9_9Rl1m-70" value="&amp;lt;&amp;lt;include&amp;gt;&amp;gt;" style="edgeLabel;html=1;align=center;verticalAlign=middle;resizable=0;points=[];" vertex="1" connectable="0" parent="bWr1Kji9oJV5c9_9Rl1m-69">
          <mxGeometry x="0.1489" y="-1" relative="1" as="geometry">
            <mxPoint x="11" y="1" as="offset" />
          </mxGeometry>
        </mxCell>
      </root>
    </mxGraphModel>
  </diagram>
  <diagram id="bUhFg7TCCN4sw5C-6Emz" name="Page-2">
    <mxGraphModel dx="786" dy="514" grid="1" gridSize="10" guides="1" tooltips="1" connect="1" arrows="1" fold="1" page="1" pageScale="1" pageWidth="850" pageHeight="1100" math="0" shadow="0">
      <root>
        <mxCell id="0" />
        <mxCell id="1" parent="0" />
      </root>
    </mxGraphModel>
  </diagram>
</mxfile>
